<?xml version="1.0" encoding="utf-8"?>
<!-- Generator: Adobe Illustrator 27.5.0, SVG Export Plug-In . SVG Version: 6.00 Build 0)  -->
<svg version="1.1" xmlns="http://www.w3.org/2000/svg" xmlns:xlink="http://www.w3.org/1999/xlink" x="0px" y="0px"
	 viewBox="0 0 500 500" style="enable-background:new 0 0 500 500;" xml:space="preserve">
<g id="BACKGROUND">
	<rect style="fill:#E7EAEB;" width="500" height="500"/>
</g>
<g id="OBJECTS">
	<g>
		<polygon style="fill:#373D4D;" points="500,500.513 500,414.333 412.833,501.5 		"/>
		<polygon style="fill:#373D4D;" points="0,-0.513 0,85.667 87.167,-1.5 		"/>
		<g>
			
				<path style="fill:none;stroke:#373D4D;stroke-width:3.1848;stroke-linecap:round;stroke-linejoin:round;stroke-miterlimit:10;" d="
				M184.2,211.428c0,0,3.962-11.357-0.792-16.441c0,0-1.783,6.339-4.226,8.716c0,0-9.838-0.528-15.054,5.018l-2.971,4.886
				l-6.141,3.83c0,0-0.726,4.424,2.773,7.329c0,0,1.056,3.103,4.028,4.028c2.971,0.924,5.48,0.198,9.046,2.443
				c3.566,2.245,15.252,40.739,22.779,52.888"/>
			
				<path style="fill:none;stroke:#373D4D;stroke-width:3.1848;stroke-linecap:round;stroke-linejoin:round;stroke-miterlimit:10;" d="
				M195.887,271.183l-7.021,45.114c-0.073,0.469-0.23,0.92-0.464,1.333l-2.893,5.11c-0.426,0.753-1.291,1.143-2.137,0.964
				l-0.936-0.198c-2.215-0.468-4.51,0.295-6.005,1.995l-1.108,1.259c-0.749,0.852-0.785,2.117-0.085,3.01l0,0
				c0.447,0.57,1.13,0.903,1.854,0.903h14.37l23.074-48.45c1.805-3.791,2.742-7.937,2.742-12.136v-11.45"/>
			
				<path style="fill:none;stroke:#373D4D;stroke-width:3.1848;stroke-linecap:round;stroke-linejoin:round;stroke-miterlimit:10;" d="
				M214.537,282.223l62.382-5.251c5.458-0.46,10.797,1.771,14.29,5.99c5.669,6.846,15.583,17.115,27.423,22.111
				c2.373,1.001,3.655,3.589,3.051,6.093l-2.459,10.199"/>
			
				<path style="fill:none;stroke:#373D4D;stroke-width:3.1848;stroke-linecap:round;stroke-linejoin:round;stroke-miterlimit:10;" d="
				M228.76,281.026l1.017,26.145c0.052,1.337,0.597,2.607,1.53,3.566l8.899,9.148c0.833,0.856,0.936,2.185,0.244,3.159l-4.056,5.714
				h-2.492c-1.931,0-3.328-1.844-2.805-3.702l0.606-2.155c0.263-0.936-0.046-1.94-0.79-2.566l-9.098-7.647
				c-0.825-0.694-1.425-1.618-1.722-2.655l-7.062-24.646"/>
			
				<path style="fill:none;stroke:#373D4D;stroke-width:3.1848;stroke-linecap:round;stroke-linejoin:round;stroke-miterlimit:10;" d="
				M265.298,277.951l7.54,22.44c1.738,5.174,0.164,10.885-3.98,14.437l-5.411,4.638c-1.004,0.86-2.36,1.186-3.645,0.875l0,0
				c-2.504-0.606-5.133,0.274-6.768,2.264l-1.021,1.243c-0.513,0.624-0.562,1.509-0.122,2.186l0,0
				c0.342,0.526,0.926,0.843,1.554,0.843h11.473l22.182-16.994c1.423-1.09,1.994-2.966,1.42-4.664l-0.037-0.11
				c-0.889-2.63-0.788-5.495,0.286-8.056l4.768-11.374"/>
			
				<path style="fill:none;stroke:#373D4D;stroke-width:3.1848;stroke-linecap:round;stroke-linejoin:round;stroke-miterlimit:10;" d="
				M183.408,194.99c0,0,5.348,3.764,6.996,13.073c0,0,15.648,20.601,27.533,24.689l90.745-3.177
				c2.155-1.703,4.239-3.502,6.267-5.356c5.031-4.722,9.54-9.959,13.073-15.696c0.491-0.697,0.856-1.442,1.252-2.179l1.204-2.211
				c0.689-1.513,1.347-3.035,1.989-4.58c0.57-1.569,1.117-3.153,1.49-4.714c0.222-0.792,0.341-1.561,0.515-2.345
				c0.111-0.761,0.254-1.545,0.301-2.29c0.277-3.027-0.111-5.816-1.299-8.003c-0.602-1.085-1.402-2.052-2.417-2.86
				c-0.507-0.396-1.062-0.761-1.648-1.062c-0.293-0.15-0.594-0.293-0.887-0.412c-0.151-0.063-0.293-0.111-0.436-0.166l-0.19-0.063
				c-0.04-0.016-0.158-0.04-0.063-0.032c-2.274-0.372-3.811-2.52-3.431-4.786c0.372-2.274,2.512-3.811,4.786-3.439
				c0.325,0.055,0.436,0.079,0.618,0.119l0.483,0.103c0.301,0.071,0.602,0.151,0.895,0.238c0.586,0.174,1.149,0.38,1.704,0.602
				c1.109,0.444,2.179,0.998,3.201,1.656c2.028,1.307,3.843,3.074,5.245,5.111c1.379,2.044,2.337,4.318,2.908,6.592
				c0.578,2.282,0.792,4.548,0.8,6.743c0.024,1.109-0.063,2.171-0.127,3.256c-0.127,1.046-0.214,2.124-0.404,3.146
				c-0.317,2.076-0.808,4.065-1.331,6.038c-0.602,1.949-1.252,3.906-1.941,5.832l-1.212,2.805c-0.404,0.935-0.784,1.894-1.276,2.773
				c-3.645,7.258-8.375,13.802-13.668,19.721c-2.337,2.559-4.762,5.031-7.297,7.377l2.599,5.388
				c2.987,6.196,3.51,13.295,1.45,19.864c-0.65,2.076-0.975,4.215-0.975,6.355c0,2.599,0.475,5.19,1.426,7.646l5.063,13.153
				c2.52,2.155,3.938,5.293,3.938,8.557c0,0.483-0.032,0.959-0.095,1.442l-3.185,24.863h-14.523l1.236-3.47
				c0.816-2.282,3.13-3.668,5.531-3.32l3.993,0.586"/>
			
				<polyline style="fill:none;stroke:#373D4D;stroke-width:3.1848;stroke-linecap:round;stroke-linejoin:round;stroke-miterlimit:10;" points="
				180.427,202.098 175.534,196.539 176.086,203.801 			"/>
		</g>
	</g>
</g>
</svg>
